<svg width="12" height="12" viewBox="0 0 12 12" fill="none" xmlns="http://www.w3.org/2000/svg">
<path d="M4 10C4 10.5304 4.21071 11.0391 4.58579 11.4142C4.96086 11.7893 5.46957 12 6 12C6.53043 12 7.03914 11.7893 7.41421 11.4142C7.78929 11.0391 8 10.5304 8 10V8H10C10.5304 8 11.0391 7.78929 11.4142 7.41421C11.7893 7.03914 12 6.53043 12 6C12 5.46957 11.7893 4.96086 11.4142 4.58579C11.0391 4.21071 10.5304 4 10 4H8V2C8 1.46957 7.78929 0.96086 7.41421 0.585787C7.03914 0.210714 6.53043 0 6 0C5.46957 0 4.96086 0.210714 4.58579 0.585787C4.21071 0.96086 4 1.46957 4 2V4H2C1.46957 4 0.96086 4.21071 0.585787 4.58579C0.210714 4.96086 0 5.46957 0 6C0 6.53043 0.210714 7.03914 0.585787 7.41421C0.96086 7.78929 1.46957 8 2 8H4V10Z" fill="#FBE36A"/>
</svg>
